<svg id="visual" viewBox="0 0 900 600" width="900" height="600" xmlns="http://www.w3.org/2000/svg" xmlns:xlink="http://www.w3.org/1999/xlink" version="1.1"><g><g transform="translate(296 424)"><path d="M64.2 -19C73.8 8.8 65.8 44.1 44.1 59.6C22.4 75.1 -12.9 70.8 -36.7 52.9C-60.4 35.1 -72.5 3.8 -64.5 -21.8C-56.4 -47.4 -28.2 -67.3 -0.5 -67.1C27.3 -67 54.5 -46.8 64.2 -19Z" stroke="#8360c3" fill="none" stroke-width="32"></path></g><g transform="translate(139 78)"><path d="M45 -14.9C50.6 2.3 41.8 24 25.1 36.6C8.4 49.2 -16.4 52.9 -31.3 42.3C-46.2 31.6 -51.2 6.7 -44.3 -12.4C-37.5 -31.6 -18.7 -44.8 0.5 -45C19.8 -45.2 39.5 -32.2 45 -14.9Z" stroke="#8360c3" fill="none" stroke-width="32"></path></g><g transform="translate(885 124)"><path d="M59.3 -18C66.9 4.1 56.2 33.3 36 47.5C15.9 61.6 -13.8 60.7 -32 46.8C-50.2 32.9 -56.9 6.1 -49.7 -15.4C-42.5 -37 -21.2 -53.2 2.3 -54C25.9 -54.7 51.8 -40 59.3 -18Z" stroke="#8360c3" fill="none" stroke-width="32"></path></g><g transform="translate(502 15)"><path d="M39.1 -12.2C44.6 4.2 38.8 24.8 25.1 34.8C11.4 44.8 -10.2 44.3 -25.4 33.6C-40.5 22.9 -49.2 2.1 -43.9 -14C-38.6 -30.1 -19.3 -41.5 -1.2 -41.1C16.8 -40.7 33.6 -28.5 39.1 -12.2Z" stroke="#8360c3" fill="none" stroke-width="32"></path></g><g transform="translate(527 392)"><path d="M48.8 -16.2C54.6 2.2 44.9 25.3 27.9 37.5C10.8 49.7 -13.5 50.9 -30.4 39.3C-47.2 27.6 -56.5 3.1 -50.2 -15.9C-43.9 -35 -21.9 -48.6 -0.2 -48.5C21.5 -48.4 42.9 -34.7 48.8 -16.2Z" stroke="#8360c3" fill="none" stroke-width="32"></path></g><g transform="translate(8 537)"><path d="M46.6 -15.6C52.7 3.7 44.7 27.1 29.2 37.8C13.7 48.4 -9.3 46.4 -24.4 35.1C-39.6 23.7 -46.9 3 -41.5 -15.2C-36.2 -33.4 -18.1 -49.3 1.1 -49.6C20.2 -50 40.4 -34.8 46.6 -15.6Z" stroke="#8360c3" fill="none" stroke-width="32"></path></g><g transform="translate(827 350)"><path d="M27.2 -8.6C30.8 2.2 26.2 15.9 16.1 23.6C6 31.2 -9.6 32.9 -19.6 25.9C-29.6 18.8 -34.1 3.1 -29.9 -8.4C-25.8 -20 -12.9 -27.4 -0.5 -27.2C11.8 -27.1 23.6 -19.3 27.2 -8.6Z" stroke="#8360c3" fill="none" stroke-width="32"></path></g><g transform="translate(655 207)"><path d="M59.4 -21.6C67.3 4.8 57.1 34.7 36.8 49.2C16.5 63.6 -14.1 62.5 -36 47.1C-57.9 31.8 -71.1 2.2 -63.7 -23.7C-56.3 -49.5 -28.1 -71.6 -1.2 -71.2C25.8 -70.8 51.6 -48 59.4 -21.6Z" stroke="#8360c3" fill="none" stroke-width="32"></path></g><g transform="translate(707 534)"><path d="M29.9 -9.6C33.8 2.4 28.8 17.5 18.1 25.4C7.4 33.3 -8.9 34 -19.7 26.4C-30.4 18.7 -35.6 2.7 -31.4 -9.7C-27.2 -22.1 -13.6 -31 -0.3 -30.9C13 -30.8 25.9 -21.7 29.9 -9.6Z" stroke="#8360c3" fill="none" stroke-width="32"></path></g><g transform="translate(320 203)"><path d="M45.9 -14C52.1 4.2 44.7 27.7 29.5 38.2C14.3 48.7 -8.6 46.1 -23.3 34.8C-38 23.5 -44.4 3.5 -39.1 -13.3C-33.8 -30.2 -16.9 -43.9 1.5 -44.4C19.9 -44.9 39.7 -32.1 45.9 -14Z" stroke="#8360c3" fill="none" stroke-width="32"></path></g><g transform="translate(52 286)"><path d="M34.6 -11.4C39.6 4.2 34.9 22.8 21.5 33.4C8.1 44.1 -13.8 46.7 -28.1 36.8C-42.3 26.9 -48.8 4.5 -42.8 -12.5C-36.8 -29.4 -18.4 -40.9 -1.8 -40.3C14.8 -39.7 29.6 -27 34.6 -11.4Z" stroke="#8360c3" fill="none" stroke-width="32"></path></g></g></svg>