<svg id="visual" viewBox="0 0 900 600" width="900" height="600" xmlns="http://www.w3.org/2000/svg" xmlns:xlink="http://www.w3.org/1999/xlink" version="1.1"><path d="M0 211L75 211L75 341L150 341L150 323L225 323L225 342L300 342L300 370L375 370L375 284L450 284L450 306L525 306L525 324L600 324L600 352L675 352L675 326L750 326L750 373L825 373L825 217L900 217L900 353L900 601L900 601L825 601L825 601L750 601L750 601L675 601L675 601L600 601L600 601L525 601L525 601L450 601L450 601L375 601L375 601L300 601L300 601L225 601L225 601L150 601L150 601L75 601L75 601L0 601Z" fill="#9900ff"></path><path d="M0 314L75 314L75 313L150 313L150 276L225 276L225 283L300 283L300 348L375 348L375 339L450 339L450 379L525 379L525 296L600 296L600 274L675 274L675 399L750 399L750 340L825 340L825 402L900 402L900 407L900 601L900 601L825 601L825 601L750 601L750 601L675 601L675 601L600 601L600 601L525 601L525 601L450 601L450 601L375 601L375 601L300 601L300 601L225 601L225 601L150 601L150 601L75 601L75 601L0 601Z" fill="#8b00e8"></path><path d="M0 330L75 330L75 429L150 429L150 415L225 415L225 422L300 422L300 374L375 374L375 400L450 400L450 404L525 404L525 325L600 325L600 446L675 446L675 368L750 368L750 338L825 338L825 392L900 392L900 444L900 601L900 601L825 601L825 601L750 601L750 601L675 601L675 601L600 601L600 601L525 601L525 601L450 601L450 601L375 601L375 601L300 601L300 601L225 601L225 601L150 601L150 601L75 601L75 601L0 601Z" fill="#7e00d1"></path><path d="M0 459L75 459L75 469L150 469L150 437L225 437L225 399L300 399L300 447L375 447L375 386L450 386L450 462L525 462L525 437L600 437L600 380L675 380L675 423L750 423L750 470L825 470L825 443L900 443L900 481L900 601L900 601L825 601L825 601L750 601L750 601L675 601L675 601L600 601L600 601L525 601L525 601L450 601L450 601L375 601L375 601L300 601L300 601L225 601L225 601L150 601L150 601L75 601L75 601L0 601Z" fill="#7000bb"></path><path d="M0 514L75 514L75 482L150 482L150 480L225 480L225 475L300 475L300 447L375 447L375 512L450 512L450 474L525 474L525 444L600 444L600 471L675 471L675 507L750 507L750 513L825 513L825 462L900 462L900 468L900 601L900 601L825 601L825 601L750 601L750 601L675 601L675 601L600 601L600 601L525 601L525 601L450 601L450 601L375 601L375 601L300 601L300 601L225 601L225 601L150 601L150 601L75 601L75 601L0 601Z" fill="#6300a5"></path><path d="M0 542L75 542L75 551L150 551L150 509L225 509L225 539L300 539L300 561L375 561L375 560L450 560L450 542L525 542L525 552L600 552L600 515L675 515L675 527L750 527L750 562L825 562L825 541L900 541L900 532L900 601L900 601L825 601L825 601L750 601L750 601L675 601L675 601L600 601L600 601L525 601L525 601L450 601L450 601L375 601L375 601L300 601L300 601L225 601L225 601L150 601L150 601L75 601L75 601L0 601Z" fill="#560090"></path></svg>