<svg id="visual" viewBox="0 0 960 540" width="960" height="540" xmlns="http://www.w3.org/2000/svg" xmlns:xlink="http://www.w3.org/1999/xlink" version="1.1"><rect x="0" y="0" width="960" height="540" fill="#00101C"></rect><defs><linearGradient id="grad1_0" x1="43.8%" y1="0%" x2="100%" y2="100%"><stop offset="14.444444444444446%" stop-color="#8360c3" stop-opacity="1"></stop><stop offset="85.55555555555554%" stop-color="#8360c3" stop-opacity="1"></stop></linearGradient></defs><defs><linearGradient id="grad1_1" x1="43.8%" y1="0%" x2="100%" y2="100%"><stop offset="14.444444444444446%" stop-color="#8360c3" stop-opacity="1"></stop><stop offset="85.55555555555554%" stop-color="#213d71" stop-opacity="1"></stop></linearGradient></defs><defs><linearGradient id="grad1_2" x1="43.8%" y1="0%" x2="100%" y2="100%"><stop offset="14.444444444444446%" stop-color="#00101c" stop-opacity="1"></stop><stop offset="85.55555555555554%" stop-color="#213d71" stop-opacity="1"></stop></linearGradient></defs><defs><linearGradient id="grad2_0" x1="0%" y1="0%" x2="56.3%" y2="100%"><stop offset="14.444444444444446%" stop-color="#8360c3" stop-opacity="1"></stop><stop offset="85.55555555555554%" stop-color="#8360c3" stop-opacity="1"></stop></linearGradient></defs><defs><linearGradient id="grad2_1" x1="0%" y1="0%" x2="56.3%" y2="100%"><stop offset="14.444444444444446%" stop-color="#213d71" stop-opacity="1"></stop><stop offset="85.55555555555554%" stop-color="#8360c3" stop-opacity="1"></stop></linearGradient></defs><defs><linearGradient id="grad2_2" x1="0%" y1="0%" x2="56.3%" y2="100%"><stop offset="14.444444444444446%" stop-color="#213d71" stop-opacity="1"></stop><stop offset="85.55555555555554%" stop-color="#00101c" stop-opacity="1"></stop></linearGradient></defs><g transform="translate(960, 0)"><path d="M0 486C-49.8 436.4 -99.5 386.7 -148.5 358.5C-197.5 330.2 -245.6 323.4 -300.5 300.5C-355.4 277.7 -417 238.7 -449 186C-481 133.2 -483.5 66.6 -486 0L0 0Z" fill="#062745"></path><path d="M0 324C-33.2 290.9 -66.3 257.8 -99 239C-131.6 220.1 -163.8 215.6 -200.3 200.3C-236.9 185.1 -278 159.2 -299.3 124C-320.7 88.8 -322.3 44.4 -324 0L0 0Z" fill="#4c509c"></path><path d="M0 162C-16.6 145.5 -33.2 128.9 -49.5 119.5C-65.8 110.1 -81.9 107.8 -100.2 100.2C-118.5 92.6 -139 79.6 -149.7 62C-160.3 44.4 -161.2 22.2 -162 0L0 0Z" fill="#8360c3"></path></g><g transform="translate(0, 540)"><path d="M0 -486C51.6 -440.8 103.2 -395.6 151.9 -366.8C200.7 -337.9 246.5 -325.5 300.5 -300.5C354.5 -275.6 416.7 -238.1 449 -186C481.3 -133.8 483.6 -66.9 486 0L0 0Z" fill="#062745"></path><path d="M0 -324C34.4 -293.9 68.8 -263.7 101.3 -244.5C133.8 -225.3 164.3 -217 200.3 -200.3C236.4 -183.7 277.8 -158.8 299.3 -124C320.9 -89.2 322.4 -44.6 324 0L0 0Z" fill="#4c509c"></path><path d="M0 -162C17.2 -146.9 34.4 -131.9 50.6 -122.3C66.9 -112.6 82.2 -108.5 100.2 -100.2C118.2 -91.9 138.9 -79.4 149.7 -62C160.4 -44.6 161.2 -22.3 162 0L0 0Z" fill="#8360c3"></path></g></svg>