<svg id="visual" viewBox="0 0 900 600" width="900" height="600" xmlns="http://www.w3.org/2000/svg" xmlns:xlink="http://www.w3.org/1999/xlink" version="1.1"><path d="M0 321L11.5 326.5C23 332 46 343 69 356.2C92 369.3 115 384.7 138.2 384.7C161.3 384.7 184.7 369.3 207.8 356.8C231 344.3 254 334.7 277 333.5C300 332.3 323 339.7 346 348.2C369 356.7 392 366.3 415.2 363.3C438.3 360.3 461.7 344.7 484.8 344.3C508 344 531 359 554 359.7C577 360.3 600 346.7 623 350C646 353.3 669 373.7 692.2 383.7C715.3 393.7 738.7 393.3 761.8 383.2C785 373 808 353 831 349.3C854 345.7 877 358.3 888.5 364.7L900 371L900 0L888.5 0C877 0 854 0 831 0C808 0 785 0 761.8 0C738.7 0 715.3 0 692.2 0C669 0 646 0 623 0C600 0 577 0 554 0C531 0 508 0 484.8 0C461.7 0 438.3 0 415.2 0C392 0 369 0 346 0C323 0 300 0 277 0C254 0 231 0 207.8 0C184.7 0 161.3 0 138.2 0C115 0 92 0 69 0C46 0 23 0 11.5 0L0 0Z" fill="#2ebf91"></path><path d="M0 265L11.5 269.7C23 274.3 46 283.7 69 281.2C92 278.7 115 264.3 138.2 258.7C161.3 253 184.7 256 207.8 260.7C231 265.3 254 271.7 277 280C300 288.3 323 298.7 346 294.8C369 291 392 273 415.2 273.7C438.3 274.3 461.7 293.7 484.8 295.2C508 296.7 531 280.3 554 276.5C577 272.7 600 281.3 623 282C646 282.7 669 275.3 692.2 265.5C715.3 255.7 738.7 243.3 761.8 243.7C785 244 808 257 831 269.5C854 282 877 294 888.5 300L900 306L900 0L888.5 0C877 0 854 0 831 0C808 0 785 0 761.8 0C738.7 0 715.3 0 692.2 0C669 0 646 0 623 0C600 0 577 0 554 0C531 0 508 0 484.8 0C461.7 0 438.3 0 415.2 0C392 0 369 0 346 0C323 0 300 0 277 0C254 0 231 0 207.8 0C184.7 0 161.3 0 138.2 0C115 0 92 0 69 0C46 0 23 0 11.5 0L0 0Z" fill="#00aed1"></path><path d="M0 150L11.5 150.3C23 150.7 46 151.3 69 157C92 162.7 115 173.3 138.2 180C161.3 186.7 184.7 189.3 207.8 193.5C231 197.7 254 203.3 277 199.7C300 196 323 183 346 185.5C369 188 392 206 415.2 211.3C438.3 216.7 461.7 209.3 484.8 201.2C508 193 531 184 554 175.5C577 167 600 159 623 167.7C646 176.3 669 201.7 692.2 203.7C715.3 205.7 738.7 184.3 761.8 173.8C785 163.3 808 163.7 831 173.2C854 182.7 877 201.3 888.5 210.7L900 220L900 0L888.5 0C877 0 854 0 831 0C808 0 785 0 761.8 0C738.7 0 715.3 0 692.2 0C669 0 646 0 623 0C600 0 577 0 554 0C531 0 508 0 484.8 0C461.7 0 438.3 0 415.2 0C392 0 369 0 346 0C323 0 300 0 277 0C254 0 231 0 207.8 0C184.7 0 161.3 0 138.2 0C115 0 92 0 69 0C46 0 23 0 11.5 0L0 0Z" fill="#328edd"></path><path d="M0 110L11.5 112.8C23 115.7 46 121.3 69 115.7C92 110 115 93 138.2 92.2C161.3 91.3 184.7 106.7 207.8 109C231 111.3 254 100.7 277 98.5C300 96.3 323 102.7 346 110.8C369 119 392 129 415.2 132.5C438.3 136 461.7 133 484.8 129.2C508 125.3 531 120.7 554 114.8C577 109 600 102 623 100.3C646 98.7 669 102.3 692.2 109.5C715.3 116.7 738.7 127.3 761.8 123.8C785 120.3 808 102.7 831 97C854 91.3 877 97.7 888.5 100.8L900 104L900 0L888.5 0C877 0 854 0 831 0C808 0 785 0 761.8 0C738.7 0 715.3 0 692.2 0C669 0 646 0 623 0C600 0 577 0 554 0C531 0 508 0 484.8 0C461.7 0 438.3 0 415.2 0C392 0 369 0 346 0C323 0 300 0 277 0C254 0 231 0 207.8 0C184.7 0 161.3 0 138.2 0C115 0 92 0 69 0C46 0 23 0 11.5 0L0 0Z" fill="#8360c3"></path></svg>