<svg id="visual" viewBox="0 0 900 600" width="900" height="600" xmlns="http://www.w3.org/2000/svg" xmlns:xlink="http://www.w3.org/1999/xlink" version="1.1"><g stroke-width="1" stroke-linejoin="bevel"><path d="M445 350.9L379 347.9L420 436.6Z" fill="#434d94" stroke="#434d94"></path><path d="M379 347.9L341 402.6L420 436.6Z" fill="#8360c3" stroke="#8360c3"></path><path d="M341 402.6L361 485.3L420 436.6Z" fill="#314583" stroke="#314583"></path><path d="M431 526.3L526 439.6L420 436.6Z" fill="#041a2c" stroke="#041a2c"></path><path d="M420 436.6L526 439.6L445 350.9Z" fill="#434d94" stroke="#434d94"></path><path d="M361 485.3L431 526.3L420 436.6Z" fill="#434d94" stroke="#434d94"></path><path d="M248 333.9L279 440.6L341 402.6Z" fill="#314583" stroke="#314583"></path><path d="M341 402.6L279 440.6L361 485.3Z" fill="#6c5ab4" stroke="#6c5ab4"></path><path d="M377 600L421 600L431 526.3Z" fill="#213d71" stroke="#213d71"></path><path d="M456 230.1L348 258.1L379 347.9Z" fill="#05233c" stroke="#05233c"></path><path d="M379 347.9L248 333.9L341 402.6Z" fill="#5754a4" stroke="#5754a4"></path><path d="M526 439.6L554 364.9L445 350.9Z" fill="#14355f" stroke="#14355f"></path><path d="M445 350.9L456 230.1L379 347.9Z" fill="#6c5ab4" stroke="#6c5ab4"></path><path d="M554 364.9L513 276.1L445 350.9Z" fill="#314583" stroke="#314583"></path><path d="M279 440.6L289 495.3L361 485.3Z" fill="#14355f" stroke="#14355f"></path><path d="M513 276.1L456 230.1L445 350.9Z" fill="#00101c" stroke="#00101c"></path><path d="M348 258.1L248 333.9L379 347.9Z" fill="#213d71" stroke="#213d71"></path><path d="M279 440.6L202 535.3L289 495.3Z" fill="#041a2c" stroke="#041a2c"></path><path d="M266 180.4L256 265.1L348 258.1Z" fill="#314583" stroke="#314583"></path><path d="M348 258.1L256 265.1L248 333.9Z" fill="#314583" stroke="#314583"></path><path d="M563 524.3L608 405.6L526 439.6Z" fill="#05233c" stroke="#05233c"></path><path d="M526 439.6L608 405.6L554 364.9Z" fill="#5754a4" stroke="#5754a4"></path><path d="M554 364.9L631 322.9L513 276.1Z" fill="#14355f" stroke="#14355f"></path><path d="M431 526.3L563 524.3L526 439.6Z" fill="#314583" stroke="#314583"></path><path d="M456 230.1L351 183.4L348 258.1Z" fill="#6c5ab4" stroke="#6c5ab4"></path><path d="M377 600L431 526.3L361 485.3Z" fill="#041a2c" stroke="#041a2c"></path><path d="M431 526.3L564 600L563 524.3Z" fill="#00101c" stroke="#00101c"></path><path d="M289 495.3L377 600L361 485.3Z" fill="#434d94" stroke="#434d94"></path><path d="M152 359.9L185 400.6L248 333.9Z" fill="#092c4e" stroke="#092c4e"></path><path d="M248 333.9L185 400.6L279 440.6Z" fill="#041a2c" stroke="#041a2c"></path><path d="M289 495.3L240 600L377 600Z" fill="#6c5ab4" stroke="#6c5ab4"></path><path d="M608 405.6L631 322.9L554 364.9Z" fill="#213d71" stroke="#213d71"></path><path d="M513 276.1L523 184.4L456 230.1Z" fill="#00101c" stroke="#00101c"></path><path d="M614 245.1L523 184.4L513 276.1Z" fill="#041a2c" stroke="#041a2c"></path><path d="M456 230.1L462 141.4L351 183.4Z" fill="#213d71" stroke="#213d71"></path><path d="M631 322.9L614 245.1L513 276.1Z" fill="#434d94" stroke="#434d94"></path><path d="M564 600L611 536.3L563 524.3Z" fill="#041a2c" stroke="#041a2c"></path><path d="M563 524.3L611 536.3L608 405.6Z" fill="#434d94" stroke="#434d94"></path><path d="M608 405.6L698 320.9L631 322.9Z" fill="#041a2c" stroke="#041a2c"></path><path d="M473 110.7L462 141.4L523 184.4Z" fill="#05233c" stroke="#05233c"></path><path d="M523 184.4L462 141.4L456 230.1Z" fill="#14355f" stroke="#14355f"></path><path d="M351 183.4L266 180.4L348 258.1Z" fill="#213d71" stroke="#213d71"></path><path d="M198 229.1L152 359.9L248 333.9Z" fill="#8360c3" stroke="#8360c3"></path><path d="M360 108.7L266 180.4L351 183.4Z" fill="#314583" stroke="#314583"></path><path d="M185 400.6L202 535.3L279 440.6Z" fill="#05233c" stroke="#05233c"></path><path d="M198 229.1L248 333.9L256 265.1Z" fill="#213d71" stroke="#213d71"></path><path d="M185 400.6L113 512.3L202 535.3Z" fill="#5754a4" stroke="#5754a4"></path><path d="M421 600L564 600L431 526.3Z" fill="#314583" stroke="#314583"></path><path d="M266 180.4L198 229.1L256 265.1Z" fill="#213d71" stroke="#213d71"></path><path d="M202 535.3L240 600L289 495.3Z" fill="#14355f" stroke="#14355f"></path><path d="M462 141.4L360 108.7L351 183.4Z" fill="#14355f" stroke="#14355f"></path><path d="M266 180.4L179 171.4L198 229.1Z" fill="#8360c3" stroke="#8360c3"></path><path d="M514 58.7L473 110.7L523 184.4Z" fill="#14355f" stroke="#14355f"></path><path d="M462 141.4L473 110.7L360 108.7Z" fill="#05233c" stroke="#05233c"></path><path d="M737 435.6L698 320.9L608 405.6Z" fill="#5754a4" stroke="#5754a4"></path><path d="M631 322.9L698 320.9L614 245.1Z" fill="#041a2c" stroke="#041a2c"></path><path d="M614 245.1L630 179.4L523 184.4Z" fill="#00101c" stroke="#00101c"></path><path d="M744 195.4L630 179.4L614 245.1Z" fill="#5754a4" stroke="#5754a4"></path><path d="M74 313.9L103 404.6L152 359.9Z" fill="#314583" stroke="#314583"></path><path d="M152 359.9L103 404.6L185 400.6Z" fill="#8360c3" stroke="#8360c3"></path><path d="M202 535.3L152 600L240 600Z" fill="#213d71" stroke="#213d71"></path><path d="M245 86.7L179 171.4L266 180.4Z" fill="#092c4e" stroke="#092c4e"></path><path d="M198 229.1L94 285.1L152 359.9Z" fill="#213d71" stroke="#213d71"></path><path d="M564 600L649 600L611 536.3Z" fill="#314583" stroke="#314583"></path><path d="M611 536.3L737 435.6L608 405.6Z" fill="#314583" stroke="#314583"></path><path d="M103 404.6L113 512.3L185 400.6Z" fill="#041a2c" stroke="#041a2c"></path><path d="M719 531.3L737 435.6L611 536.3Z" fill="#213d71" stroke="#213d71"></path><path d="M111 196.4L94 285.1L198 229.1Z" fill="#00101c" stroke="#00101c"></path><path d="M113 512.3L152 600L202 535.3Z" fill="#14355f" stroke="#14355f"></path><path d="M649 600L719 531.3L611 536.3Z" fill="#5754a4" stroke="#5754a4"></path><path d="M360 108.7L245 86.7L266 180.4Z" fill="#5754a4" stroke="#5754a4"></path><path d="M266 0L245 86.7L360 108.7Z" fill="#041a2c" stroke="#041a2c"></path><path d="M94 285.1L74 313.9L152 359.9Z" fill="#6c5ab4" stroke="#6c5ab4"></path><path d="M0 491.3L84 600L113 512.3Z" fill="#14355f" stroke="#14355f"></path><path d="M630 179.4L514 58.7L523 184.4Z" fill="#434d94" stroke="#434d94"></path><path d="M463 0L361 0L360 108.7Z" fill="#14355f" stroke="#14355f"></path><path d="M797 275.1L740 278.1L818 316.9Z" fill="#14355f" stroke="#14355f"></path><path d="M698 320.9L740 278.1L614 245.1Z" fill="#314583" stroke="#314583"></path><path d="M630 179.4L654 82.7L514 58.7Z" fill="#14355f" stroke="#14355f"></path><path d="M179 171.4L111 196.4L198 229.1Z" fill="#6c5ab4" stroke="#6c5ab4"></path><path d="M0 267.1L0 332.9L74 313.9Z" fill="#8360c3" stroke="#8360c3"></path><path d="M154 56.7L111 196.4L179 171.4Z" fill="#092c4e" stroke="#092c4e"></path><path d="M649 600L705 600L719 531.3Z" fill="#14355f" stroke="#14355f"></path><path d="M797 275.1L744 195.4L740 278.1Z" fill="#092c4e" stroke="#092c4e"></path><path d="M740 278.1L744 195.4L614 245.1Z" fill="#434d94" stroke="#434d94"></path><path d="M0 491.3L113 512.3L103 404.6Z" fill="#5754a4" stroke="#5754a4"></path><path d="M113 512.3L84 600L152 600Z" fill="#434d94" stroke="#434d94"></path><path d="M714 89.7L654 82.7L630 179.4Z" fill="#434d94" stroke="#434d94"></path><path d="M463 0L473 110.7L514 58.7Z" fill="#092c4e" stroke="#092c4e"></path><path d="M463 0L360 108.7L473 110.7Z" fill="#14355f" stroke="#14355f"></path><path d="M567 0L463 0L514 58.7Z" fill="#092c4e" stroke="#092c4e"></path><path d="M783 520.3L801 448.6L737 435.6Z" fill="#213d71" stroke="#213d71"></path><path d="M818 316.9L740 278.1L698 320.9Z" fill="#434d94" stroke="#434d94"></path><path d="M783 520.3L737 435.6L719 531.3Z" fill="#314583" stroke="#314583"></path><path d="M705 600L783 520.3L719 531.3Z" fill="#213d71" stroke="#213d71"></path><path d="M818 316.9L698 320.9L737 435.6Z" fill="#314583" stroke="#314583"></path><path d="M0 332.9L0 431.6L103 404.6Z" fill="#434d94" stroke="#434d94"></path><path d="M0 332.9L103 404.6L74 313.9Z" fill="#8360c3" stroke="#8360c3"></path><path d="M361 0L266 0L360 108.7Z" fill="#092c4e" stroke="#092c4e"></path><path d="M245 86.7L154 56.7L179 171.4Z" fill="#434d94" stroke="#434d94"></path><path d="M801 448.6L818 316.9L737 435.6Z" fill="#5754a4" stroke="#5754a4"></path><path d="M0 267.1L94 285.1L111 196.4Z" fill="#314583" stroke="#314583"></path><path d="M0 267.1L74 313.9L94 285.1Z" fill="#05233c" stroke="#05233c"></path><path d="M654 82.7L567 0L514 58.7Z" fill="#8360c3" stroke="#8360c3"></path><path d="M199 0L154 56.7L245 86.7Z" fill="#8360c3" stroke="#8360c3"></path><path d="M0 431.6L0 491.3L103 404.6Z" fill="#6c5ab4" stroke="#6c5ab4"></path><path d="M744 195.4L714 89.7L630 179.4Z" fill="#213d71" stroke="#213d71"></path><path d="M654 82.7L645 0L567 0Z" fill="#05233c" stroke="#05233c"></path><path d="M798 187.4L714 89.7L744 195.4Z" fill="#5754a4" stroke="#5754a4"></path><path d="M798 187.4L744 195.4L797 275.1Z" fill="#8360c3" stroke="#8360c3"></path><path d="M0 166.4L0 267.1L111 196.4Z" fill="#8360c3" stroke="#8360c3"></path><path d="M900 198.4L798 187.4L797 275.1Z" fill="#8360c3" stroke="#8360c3"></path><path d="M266 0L199 0L245 86.7Z" fill="#213d71" stroke="#213d71"></path><path d="M705 0L654 82.7L714 89.7Z" fill="#213d71" stroke="#213d71"></path><path d="M705 0L645 0L654 82.7Z" fill="#092c4e" stroke="#092c4e"></path><path d="M0 491.3L0 600L84 600Z" fill="#5754a4" stroke="#5754a4"></path><path d="M900 484.3L900 426.6L801 448.6Z" fill="#5754a4" stroke="#5754a4"></path><path d="M801 448.6L900 371.9L818 316.9Z" fill="#041a2c" stroke="#041a2c"></path><path d="M705 600L824 600L783 520.3Z" fill="#14355f" stroke="#14355f"></path><path d="M69 64.7L0 166.4L111 196.4Z" fill="#8360c3" stroke="#8360c3"></path><path d="M69 64.7L111 196.4L154 56.7Z" fill="#8360c3" stroke="#8360c3"></path><path d="M104 0L69 64.7L154 56.7Z" fill="#6c5ab4" stroke="#6c5ab4"></path><path d="M813 0L705 0L714 89.7Z" fill="#05233c" stroke="#05233c"></path><path d="M818 316.9L900 273.1L797 275.1Z" fill="#5754a4" stroke="#5754a4"></path><path d="M798 187.4L831 76.7L714 89.7Z" fill="#14355f" stroke="#14355f"></path><path d="M900 426.6L900 371.9L801 448.6Z" fill="#05233c" stroke="#05233c"></path><path d="M900 484.3L801 448.6L783 520.3Z" fill="#8360c3" stroke="#8360c3"></path><path d="M199 0L104 0L154 56.7Z" fill="#314583" stroke="#314583"></path><path d="M69 64.7L0 77.7L0 166.4Z" fill="#314583" stroke="#314583"></path><path d="M824 600L900 484.3L783 520.3Z" fill="#434d94" stroke="#434d94"></path><path d="M900 371.9L900 273.1L818 316.9Z" fill="#041a2c" stroke="#041a2c"></path><path d="M0 0L0 77.7L69 64.7Z" fill="#6c5ab4" stroke="#6c5ab4"></path><path d="M900 198.4L831 76.7L798 187.4Z" fill="#00101c" stroke="#00101c"></path><path d="M900 273.1L900 198.4L797 275.1Z" fill="#8360c3" stroke="#8360c3"></path><path d="M824 600L900 600L900 484.3Z" fill="#00101c" stroke="#00101c"></path><path d="M900 0L813 0L831 76.7Z" fill="#314583" stroke="#314583"></path><path d="M831 76.7L813 0L714 89.7Z" fill="#314583" stroke="#314583"></path><path d="M104 0L0 0L69 64.7Z" fill="#092c4e" stroke="#092c4e"></path><path d="M900 198.4L900 62.7L831 76.7Z" fill="#00101c" stroke="#00101c"></path><path d="M900 62.7L900 0L831 76.7Z" fill="#00101c" stroke="#00101c"></path></g></svg>