<svg id="visual" viewBox="0 0 960 540" width="960" height="540" xmlns="http://www.w3.org/2000/svg" xmlns:xlink="http://www.w3.org/1999/xlink" version="1.1"><g transform="translate(349.5897909696487 314.995519384156)"><path d="M239 -299.6C313.8 -274.6 381.4 -210.2 436.6 -122.4C491.9 -34.7 534.8 76.5 474.9 121.3C414.9 166.1 252.1 144.5 155.8 154.9C59.5 165.3 29.8 207.6 -8.8 219.8C-47.4 231.9 -94.8 213.9 -139.2 186.6C-183.6 159.4 -224.9 122.9 -238 78.4C-251.1 33.8 -235.9 -19 -225.8 -80.6C-215.7 -142.2 -210.7 -212.7 -173.9 -250.1C-137.1 -287.4 -68.6 -291.7 6.8 -301C82.1 -310.3 164.2 -324.7 239 -299.6" fill="#2ebf91"></path></g></svg>